<svg width="457" height="186" viewBox="0 0 457 186" fill="none" xmlns="http://www.w3.org/2000/svg">
<g filter="url(#filter0_dddddd_1_1338)">
<path d="M144.237 103.885C144.04 104.655 143.648 104.655 143.452 103.691C142.668 99.6431 140.119 95.2089 134.041 93.0882C133.845 93.0882 133.649 93.2809 133.649 93.4736C134.237 94.4376 135.021 96.1729 135.021 98.4863C134.825 103.885 132.08 107.162 130.708 108.511C130.316 108.897 129.924 108.704 130.12 108.126C130.316 101.571 124.434 98.6791 123.453 95.0158C123.257 94.6304 123.061 94.6304 122.865 95.2089C119.532 118.922 101.102 148.998 63.0654 133.767C62.6734 133.574 62.4771 133.382 63.2614 133.382C104.631 135.31 102.279 96.3656 78.7508 79.5926C78.5545 79.3999 78.1625 79.3999 78.1625 79.7853C77.9665 85.5693 72.0844 87.69 77.9665 99.6431C78.1625 99.8358 77.9665 100.029 77.7702 100.029C65.222 97.7151 61.6931 88.654 62.8694 81.5206C62.8694 81.3279 62.6734 81.1351 62.4771 81.3278C54.8307 87.4973 53.6544 95.4016 58.7519 103.499C58.9479 103.691 58.5559 104.077 58.3599 103.885C43.0668 93.2809 47.7723 75.5439 55.419 71.3028C62.0851 67.4468 66.3986 70.3388 66.9866 70.7242C67.3789 70.917 67.7709 70.5315 67.3789 70.146C66.5946 67.8323 64.634 63.7839 66.2026 59.7352C71.6924 44.5047 95.8085 45.4687 103.651 55.4937C103.847 55.6865 103.651 56.0723 103.259 55.8792C89.338 52.0235 78.1625 62.2414 76.3979 63.7839C75.6136 64.3621 75.8096 64.7479 76.7899 64.3621C92.8672 60.5064 95.4162 71.881 103.847 71.881C104.435 71.881 104.631 72.2664 104.043 72.6522C94.2399 80.1711 84.0443 77.6646 81.2994 76.3151C80.5151 75.9297 80.3191 76.5079 81.1034 77.0864C113.65 100.221 98.357 129.911 89.7304 131.839C108.357 127.212 116.395 107.74 119.728 95.2089C119.924 94.6304 119.728 94.6304 119.336 95.0158C117.964 96.3656 116.199 98.6791 115.807 99.0646C111.298 103.306 106.592 103.113 104.435 102.728C103.847 102.535 103.651 102.342 104.239 101.957C110.121 98.6791 108.749 89.2322 115.415 87.8827C115.807 87.8827 115.807 87.4973 115.611 87.3042C114.434 85.9548 107.572 83.834 101.494 88.8467C101.102 89.2322 100.71 89.0395 100.906 88.461C101.102 86.5333 101.886 82.0991 107.572 79.3999C113.258 76.7009 118.552 78.0504 121.885 81.7133C124.042 84.2195 124.042 86.3402 124.042 86.9188C124.238 87.4973 124.63 87.4973 125.022 87.3042C126.002 86.726 127.571 85.5693 129.924 84.9908C138.551 83.2558 147.178 95.0158 144.237 103.885Z" fill="url(#paint0_linear_1_1338)"/>
</g>
<path d="M174.63 122.061H159.7C159.154 122.061 158.062 122.061 158.062 121.092C158.062 120.705 158.243 120.124 158.972 120.124C159.154 120.124 159.336 120.124 159.7 120.124C160.428 120.124 160.975 119.93 161.521 119.93C162.613 119.736 163.706 119.543 163.706 115.668V86.219C163.706 74.4006 163.706 72.2697 163.524 69.9447C163.342 67.2323 162.795 66.4572 160.793 66.0698C160.246 65.8761 159.336 65.8761 158.608 65.8761C157.879 65.8761 157.697 65.295 157.697 64.9073C157.697 63.9388 158.608 63.9388 159.154 63.9388H176.087C185.191 63.9388 188.468 67.2323 189.56 68.3948C191.381 70.332 193.202 73.8196 193.202 77.6944C193.202 88.544 185.737 96.0998 175.177 96.0998C174.994 96.0998 174.266 96.0998 173.72 96.0998C173.356 96.0998 172.628 95.9061 172.628 95.131C172.628 93.9688 173.538 93.9688 174.994 93.9688C181.731 93.9688 186.829 88.7377 186.829 81.9567C186.829 80.2131 186.829 74.7884 183.006 70.5257C179.911 67.2323 176.633 66.8449 174.266 66.8449C174.084 66.8449 173.902 66.8449 173.902 66.8449H173.538C172.263 66.8449 171.171 67.0386 170.625 67.2323C170.261 67.426 170.261 67.8134 170.261 68.2011V115.28C170.261 119.155 170.807 119.155 172.628 119.543C173.356 119.736 173.72 119.736 174.266 119.736L174.813 119.93C175.541 120.124 175.723 120.511 175.723 120.899C175.905 121.868 175.177 122.061 174.63 122.061Z" fill="white"/>
<path d="M227.211 116.813H216.739C216.365 116.813 215.617 116.813 215.617 116.047C215.617 115.664 215.617 115.472 215.804 115.472C215.991 115.089 216.552 115.089 217.113 115.089C217.3 115.089 217.487 115.089 217.674 115.089C217.674 115.089 217.861 114.897 217.674 114.514L212.999 102.825H201.032C201.032 102.825 201.032 102.825 200.845 103.016C200.845 103.016 198.414 109.915 197.853 111.257C197.292 112.598 197.105 113.748 197.105 114.514C197.105 115.281 198.04 115.472 198.414 115.472H198.975C199.536 115.472 199.91 115.856 199.91 116.239C199.91 116.43 199.723 117.005 198.788 117.005H189.439C189.065 117.005 188.13 117.005 188.13 116.239C188.13 115.856 188.504 115.472 188.878 115.472C189.065 115.472 189.252 115.472 189.439 115.472C189.626 115.472 189.626 115.472 189.813 115.472C191.87 115.281 192.804 113.748 193.926 111.065L206.081 78.8717C206.642 77.3385 207.016 76.572 207.764 76.572C208.512 76.572 208.699 77.147 209.073 78.1053C209.073 78.2967 209.26 78.4885 209.26 78.6799C209.634 79.8296 211.877 85.1954 214.496 91.7105C217.113 98.4174 220.105 105.891 221.788 109.915C223.658 114.514 224.967 115.089 225.902 115.281C226.65 115.472 227.211 115.472 227.585 115.472C228.146 115.472 228.707 115.856 228.707 116.43C228.707 116.43 228.333 116.813 227.211 116.813ZM201.967 99.3756H211.877L206.829 85.5786C206.829 85.5786 206.829 85.5786 206.829 85.3868C206.829 85.3868 206.829 85.3868 206.829 85.5786C206.642 86.1533 202.715 97.651 201.967 99.3756Z" fill="white"/>
<path d="M252.043 117.005H232.703C231.608 117.005 231.608 116.422 231.608 116.033C231.608 115.645 231.973 115.256 232.52 115.256C233.068 115.256 233.433 115.061 233.98 115.061C234.71 114.867 234.71 114.284 234.892 112.729V112.534C235.257 110.396 235.257 106.314 235.257 101.26V92.1232C235.257 83.9588 235.257 82.5981 235.075 81.0431C234.892 79.2934 234.71 78.7104 233.433 78.5161C231.791 78.3217 231.426 78.3217 231.243 77.544C231.243 77.3497 231.243 77.1554 231.426 76.961C231.608 76.7664 232.156 76.572 232.52 76.572H243.103C243.65 76.572 244.015 76.7664 244.197 76.961C244.38 77.1554 244.38 77.3497 244.38 77.544C244.38 78.3217 243.832 78.3217 242.19 78.5161C241.096 78.7104 240.731 79.0991 240.731 81.0431C240.731 82.5981 240.731 84.1535 240.731 92.1232V101.454C240.731 107.869 240.731 111.951 241.643 112.923C242.373 113.701 244.38 114.089 248.029 114.089C250.765 114.089 252.772 113.895 253.867 112.729C254.415 112.146 254.779 110.979 254.962 110.007C255.144 109.424 255.509 109.035 255.874 109.035C256.239 109.035 256.604 109.229 256.604 110.201C256.604 110.785 256.239 113.895 255.874 115.45C255.144 116.811 254.779 117.005 252.043 117.005Z" fill="white"/>
<path d="M270.243 117.005H260.457C259.516 117.005 259.14 116.624 259.14 116.051C259.14 115.67 259.328 115.289 260.081 115.289C260.457 115.289 260.833 115.289 261.586 115.098C262.903 114.907 263.092 113.763 263.28 111.856V111.283L267.232 77.9071C267.232 77.1441 267.796 76.572 268.361 76.572C268.737 76.572 269.49 76.7628 269.866 77.5258L286.239 108.613L301.859 77.7166C302.046 77.335 302.423 76.572 303.176 76.572C303.552 76.572 304.305 76.7628 304.493 78.2887L308.633 113.381C308.821 114.526 308.821 114.716 310.139 114.907C310.515 114.907 310.703 114.907 310.891 115.098C311.456 115.098 312.021 115.289 312.209 115.479C312.209 115.67 312.397 115.67 312.397 116.051C312.397 116.814 311.456 116.814 310.891 116.814H300.729C299.976 116.814 299.789 116.433 299.789 116.051C299.789 115.67 299.976 115.098 300.541 115.098C302.423 114.907 302.799 114.716 302.611 113.572L300.353 88.9689L287.556 113.954C286.427 116.242 286.051 116.814 285.298 116.814C284.545 116.814 284.169 116.052 283.039 114.335C281.722 112.046 277.958 105.371 276.641 102.51C276.077 101.557 275.324 99.8403 274.383 98.1237C272.689 94.8815 270.996 91.4485 270.055 89.541L267.985 111.474C267.985 112.237 267.985 113.191 267.985 113.954C267.985 114.526 268.361 114.907 268.926 114.907C269.678 115.098 270.243 115.098 270.619 115.098C270.807 115.098 270.807 115.098 270.996 115.098C271.56 115.098 271.748 115.479 271.748 115.861C271.748 117.005 270.807 117.005 270.243 117.005Z" fill="white"/>
<path d="M323.83 119.532C322.282 119.532 318.608 119.332 315.9 118.127C314.933 117.725 314.933 117.123 314.933 115.718C314.933 112.707 315.126 110.498 315.126 110.097C315.126 109.696 315.319 108.692 316.093 108.692C316.48 108.692 317.061 108.893 317.061 109.696C317.061 110.097 317.061 110.9 317.254 111.502C318.221 116.119 323.637 116.521 325.378 116.521C330.019 116.521 332.922 113.911 332.922 109.896C332.922 106.283 331.181 104.677 326.343 100.863L323.83 99.0559C318.221 94.6394 315.9 91.2266 315.9 87.2119C315.9 80.7878 320.736 76.572 328.281 76.572C330.601 76.572 332.729 76.9735 333.887 77.1743C334.856 77.375 335.242 77.375 335.628 77.375C335.825 77.375 336.597 77.375 336.597 78.178C336.597 78.178 336.597 78.3788 336.597 78.7803C336.597 79.5833 336.404 81.1893 336.404 83.9999C336.404 84.8029 336.404 85.6059 335.628 85.6059C334.856 85.6059 334.856 85.0036 334.663 84.6021C334.47 83.3976 334.277 82.5946 333.887 81.9923C333.887 81.9923 332.535 79.5833 327.312 79.5833C324.216 79.5833 320.542 80.9886 320.542 85.0036C320.542 88.2156 321.896 90.0224 327.312 93.6356L328.86 94.6394C335.242 99.0559 337.759 103.071 337.759 107.889C337.759 111.904 336.018 115.116 332.535 117.525C330.601 118.93 327.698 119.532 323.83 119.532Z" fill="white"/>
<path d="M372.085 122.061H355.179C354.259 122.061 353.892 121.484 353.892 121.099C353.892 120.714 354.075 120.137 354.812 120.137C355.179 120.137 355.546 119.944 355.913 119.944C356.283 119.944 356.65 119.944 357.017 119.752C358.121 119.559 358.488 118.212 358.854 115.903C359.221 112.823 359.221 106.665 359.221 99.5437V86.2639C359.221 74.5238 359.221 72.4069 359.038 69.9049C358.854 67.2105 358.304 66.4405 356.283 66.0557C355.913 66.0557 355.363 65.8632 353.892 65.8632C353.341 65.8632 352.975 65.4784 352.975 64.9008C352.975 63.9388 354.075 63.9388 354.445 63.9388H370.617C384.765 63.9388 385.502 74.5238 385.502 75.6786C385.685 83.3771 381.827 87.4187 379.436 88.9583C384.582 90.1131 391.015 96.6568 391.015 105.125C390.832 113.401 384.952 122.061 372.085 122.061ZM365.655 91.6528V96.0793C365.655 101.661 365.655 111.283 365.655 112.438V112.823C365.838 116.288 365.838 117.057 367.859 118.02C369.88 118.982 373.372 119.174 374.109 119.174C378.518 119.174 383.848 116.48 383.848 108.974C383.848 106.087 383.114 98.5813 377.048 94.1548C374.66 92.4224 373.005 92.23 371.351 92.0376C370.617 91.8452 368.593 91.6528 365.655 91.6528ZM365.838 88.5735C366.389 88.5735 367.492 88.7659 370.064 88.7659C374.109 88.7659 374.843 88.5735 376.314 87.0339C377.968 85.1091 378.885 82.4147 378.885 79.7202C378.885 73.9465 376.497 67.2105 369.514 67.2105C368.593 67.2105 367.126 67.2105 366.205 67.5953C365.655 67.7877 365.655 67.7877 365.655 67.9804V88.1884C365.655 88.3811 365.655 88.3811 365.838 88.5735Z" fill="white"/>
<path d="M416.839 117.005H416.452H397.625C396.663 117.005 396.28 116.615 396.28 116.028C396.28 115.638 396.663 115.247 397.049 115.247C397.432 115.247 397.625 115.052 398.008 115.052C398.201 115.052 398.394 115.052 398.777 114.857H398.971C399.74 114.661 400.123 114.466 400.123 109.973V86.5339C400.123 78.7207 399.736 78.7207 398.201 78.5254C397.818 78.5254 397.239 78.5254 396.856 78.3301C396.28 78.3301 396.087 77.9395 396.087 77.5489C396.087 76.9626 396.473 76.7673 397.049 76.7673C398.777 76.7673 413.955 76.9626 415.683 76.9626C416.645 76.9626 417.415 76.7673 417.798 76.7673H417.991C418.181 76.572 418.567 76.572 418.76 76.572C419.143 76.572 419.526 76.7673 419.526 77.5489C419.526 77.9395 418.95 82.8226 418.76 83.4085C418.567 84.19 418.374 84.3853 417.798 84.3853C417.605 84.3853 417.028 84.3853 417.028 83.2132C417.028 82.8226 417.028 82.0414 416.839 81.4552C416.645 80.8693 416.263 80.2834 413.379 80.0881C412.61 80.0881 406.656 79.8928 406.27 79.8928C405.887 79.8928 405.887 80.0881 405.887 80.2834V94.1516C405.887 94.1516 405.887 94.1516 405.887 94.3469C407.422 94.3469 413.379 94.3469 414.531 94.1516H414.724C415.876 93.9563 416.452 93.9563 417.028 93.5657L417.222 93.3704C417.605 92.9798 417.798 92.7845 418.181 92.7845C418.567 92.7845 418.95 92.9798 418.95 93.5657C418.95 93.761 418.95 93.9563 418.95 94.1516C418.76 94.5425 418.76 95.3237 418.567 96.4955C418.374 97.4723 418.374 100.012 418.374 100.207C418.374 100.988 417.798 101.184 417.605 101.184C417.028 101.184 416.839 100.793 416.839 100.207C416.839 99.8163 416.839 99.2304 416.645 98.6441C416.452 98.2535 416.452 97.6676 414.341 97.277C412.996 97.0817 407.615 97.0817 406.463 97.0817V101.379C406.463 101.965 406.463 102.746 406.463 103.723C406.463 106.262 406.463 109.583 406.463 110.169C406.656 113.294 407.039 113.88 412.42 113.88C413.762 113.88 416.263 113.88 417.605 113.294C418.76 112.708 419.336 111.927 419.719 109.973C419.719 109.583 419.912 108.801 420.681 108.997C420.871 108.997 421.447 109.192 421.447 110.169C421.447 110.755 421.064 114.075 420.681 115.247C419.336 117.005 418.567 117.005 416.839 117.005Z" fill="white"/>
<path d="M443.547 117.005H432.499C432.135 117.005 431.231 117.005 431.231 116.228C431.231 115.839 431.411 115.45 431.955 115.45C432.679 115.45 433.584 115.256 433.947 115.061C434.671 114.867 435.215 114.673 435.215 110.785V80.4598H428.511C425.795 80.4598 424.527 80.8488 423.803 82.0151C423.439 82.7925 423.259 82.9871 423.079 83.3758V83.5701C422.896 83.9588 422.715 84.3478 422.171 84.3478C421.811 84.3478 421.447 83.9588 421.447 83.5701C421.447 83.1814 421.811 81.6261 422.535 78.3217L422.715 77.7384C422.895 77.3497 422.895 76.572 423.623 76.572C423.803 76.572 423.983 76.572 424.164 76.7664C424.527 76.961 425.071 77.1554 425.795 77.1554C427.243 77.3497 429.055 77.3497 429.599 77.3497H446.447C446.991 77.3497 448.8 77.3497 450.251 77.1554C450.975 76.961 451.519 76.7664 451.88 76.7664C452.063 76.7664 452.243 76.572 452.423 76.572C453.148 76.572 453.331 77.544 453.331 77.9327C453.331 77.9327 453.331 78.3217 453.511 78.7104C454.055 81.4318 454.416 83.1814 454.416 83.5701C454.416 84.1535 454.055 84.3478 453.692 84.3478C453.331 84.3478 452.967 84.1535 452.787 83.5701C452.604 83.1814 452.604 82.9871 452.063 82.2094C451.336 81.2374 450.068 80.6544 447.351 80.6544H440.467V110.979C440.467 115.061 440.648 115.061 442.279 115.256H442.46C443.547 115.45 444.272 115.45 444.272 116.228C444.272 116.422 444.272 116.617 444.091 116.811C444.272 116.811 443.911 117.005 443.547 117.005Z" fill="white"/>
<defs>
<filter id="filter0_dddddd_1_1338" x="33.356" y="33.1851" width="126.387" height="119.63" filterUnits="userSpaceOnUse" color-interpolation-filters="sRGB">
<feFlood flood-opacity="0" result="BackgroundImageFix"/>
<feColorMatrix in="SourceAlpha" type="matrix" values="0 0 0 0 0 0 0 0 0 0 0 0 0 0 0 0 0 0 127 0" result="hardAlpha"/>
<feOffset/>
<feGaussianBlur stdDeviation="0.1776"/>
<feColorMatrix type="matrix" values="0 0 0 0 0.6 0 0 0 0 0.4 0 0 0 0 0.2 0 0 0 1 0"/>
<feBlend mode="normal" in2="BackgroundImageFix" result="effect1_dropShadow_1_1338"/>
<feColorMatrix in="SourceAlpha" type="matrix" values="0 0 0 0 0 0 0 0 0 0 0 0 0 0 0 0 0 0 127 0" result="hardAlpha"/>
<feOffset/>
<feGaussianBlur stdDeviation="0.3552"/>
<feColorMatrix type="matrix" values="0 0 0 0 0.6 0 0 0 0 0.4 0 0 0 0 0.2 0 0 0 1 0"/>
<feBlend mode="normal" in2="effect1_dropShadow_1_1338" result="effect2_dropShadow_1_1338"/>
<feColorMatrix in="SourceAlpha" type="matrix" values="0 0 0 0 0 0 0 0 0 0 0 0 0 0 0 0 0 0 127 0" result="hardAlpha"/>
<feOffset/>
<feGaussianBlur stdDeviation="1.2432"/>
<feColorMatrix type="matrix" values="0 0 0 0 0.6 0 0 0 0 0.4 0 0 0 0 0.2 0 0 0 1 0"/>
<feBlend mode="normal" in2="effect2_dropShadow_1_1338" result="effect3_dropShadow_1_1338"/>
<feColorMatrix in="SourceAlpha" type="matrix" values="0 0 0 0 0 0 0 0 0 0 0 0 0 0 0 0 0 0 127 0" result="hardAlpha"/>
<feOffset/>
<feGaussianBlur stdDeviation="2.4864"/>
<feColorMatrix type="matrix" values="0 0 0 0 0.6 0 0 0 0 0.4 0 0 0 0 0.2 0 0 0 1 0"/>
<feBlend mode="normal" in2="effect3_dropShadow_1_1338" result="effect4_dropShadow_1_1338"/>
<feColorMatrix in="SourceAlpha" type="matrix" values="0 0 0 0 0 0 0 0 0 0 0 0 0 0 0 0 0 0 127 0" result="hardAlpha"/>
<feOffset/>
<feGaussianBlur stdDeviation="4.2624"/>
<feColorMatrix type="matrix" values="0 0 0 0 0.6 0 0 0 0 0.4 0 0 0 0 0.2 0 0 0 1 0"/>
<feBlend mode="normal" in2="effect4_dropShadow_1_1338" result="effect5_dropShadow_1_1338"/>
<feColorMatrix in="SourceAlpha" type="matrix" values="0 0 0 0 0 0 0 0 0 0 0 0 0 0 0 0 0 0 127 0" result="hardAlpha"/>
<feOffset/>
<feGaussianBlur stdDeviation="7.4592"/>
<feColorMatrix type="matrix" values="0 0 0 0 0.6 0 0 0 0 0.4 0 0 0 0 0.2 0 0 0 1 0"/>
<feBlend mode="normal" in2="effect5_dropShadow_1_1338" result="effect6_dropShadow_1_1338"/>
<feBlend mode="normal" in="SourceGraphic" in2="effect6_dropShadow_1_1338" result="shape"/>
</filter>
<linearGradient id="paint0_linear_1_1338" x1="72.7824" y1="131.968" x2="126.878" y2="83.8308" gradientUnits="userSpaceOnUse">
<stop offset="0.183312" stop-color="#FFD261"/>
<stop offset="0.5" stop-color="#FFF28F"/>
<stop offset="1" stop-color="#FFBE41"/>
</linearGradient>
</defs>
</svg>
